<svg xmlns="http://www.w3.org/2000/svg" viewBox="0 0 100 120" width="100" height="120" aria-hidden="true" role="presentation">
  <path d="M50 115 L50 50" fill="none" stroke="#8FA37F" stroke-width="2" stroke-linecap="round"/>
  <path d="M50 50 C50 50 45 40 30 30 C25 27 15 25 5 28" fill="none" stroke="#8FA37F" stroke-width="1.5" stroke-linecap="round"/>
  <path d="M50 50 C50 50 55 40 70 30 C75 27 85 25 95 28" fill="none" stroke="#8FA37F" stroke-width="1.5" stroke-linecap="round"/>
  <path d="M50 50 C50 50 42 35 25 20 C20 16 12 12 5 12" fill="none" stroke="#8FA37F" stroke-width="1.5" stroke-linecap="round"/>
  <path d="M50 50 C50 50 58 35 75 20 C80 16 88 12 95 12" fill="none" stroke="#8FA37F" stroke-width="1.5" stroke-linecap="round"/>
  <path d="M50 50 C50 50 48 30 45 15 C43 8 42 3 50 2 C58 3 57 8 55 15 C52 30 50 50 50 50" fill="#C8D2BC" fill-opacity="0.3" stroke="#8FA37F" stroke-width="1" stroke-linecap="round"/>
  <!-- leaf details -->
  <path d="M30 30 L28 25 M30 30 L26 29 M30 30 L32 26" fill="none" stroke="#8FA37F" stroke-width="0.8" opacity="0.6"/>
  <path d="M70 30 L72 25 M70 30 L74 29 M70 30 L68 26" fill="none" stroke="#8FA37F" stroke-width="0.8" opacity="0.6"/>
</svg>
